<svg id="visual" viewBox="0 0 900 600" width="900" height="600" xmlns="http://www.w3.org/2000/svg" xmlns:xlink="http://www.w3.org/1999/xlink" version="1.1"><rect x="0" y="0" width="900" height="600" fill="#140021"></rect><path d="M0 372L129 372L129 369L257 369L257 262L386 262L386 374L514 374L514 376L643 376L643 282L771 282L771 283L900 283L900 381L900 601L900 601L771 601L771 601L643 601L643 601L514 601L514 601L386 601L386 601L257 601L257 601L129 601L129 601L0 601Z" fill="#9900ff"></path><path d="M0 418L129 418L129 415L257 415L257 359L386 359L386 371L514 371L514 456L643 456L643 365L771 365L771 450L900 450L900 442L900 601L900 601L771 601L771 601L643 601L643 601L514 601L514 601L386 601L386 601L257 601L257 601L129 601L129 601L0 601Z" fill="#7700c6"></path><path d="M0 496L129 496L129 528L257 528L257 500L386 500L386 526L514 526L514 507L643 507L643 536L771 536L771 474L900 474L900 536L900 601L900 601L771 601L771 601L643 601L643 601L514 601L514 601L386 601L386 601L257 601L257 601L129 601L129 601L0 601Z" fill="#560090"></path></svg>